<svg width="534" height="531" viewBox="0 0 534 531" fill="none" xmlns="http://www.w3.org/2000/svg">
<path d="M533.667 263.667C533.043 212.85 517.91 163.27 490.05 120.765C462.19 78.2604 422.767 44.6014 376.42 23.7524C330.07 2.90337 278.73 -4.26729 228.443 3.08437C178.158 10.4364 131.019 32.0044 92.58 65.2494C54.1407 98.494 26.0017 142.031 11.4767 190.732C-3.04797 239.433 -3.35397 291.27 10.5954 340.14C24.5447 389.01 52.168 432.873 90.2124 466.57C128.256 500.267 175.137 522.39 225.333 530.333V341.333H158.667V263.667H225.333V204.667C223.79 190.949 225.277 177.058 229.69 163.977C234.103 150.896 241.333 138.942 250.87 128.961C260.407 118.979 272.017 111.212 284.883 106.208C297.75 101.204 311.56 99.085 325.333 100.001C345.327 100.275 365.273 102.058 385 105.334V172.001H351.667C345.92 171.276 340.08 171.852 334.587 173.686C329.09 175.521 324.077 178.566 319.917 182.598C315.757 186.63 312.557 191.546 310.553 196.98C308.547 202.417 307.79 208.233 308.333 214V264.333H382.333L370.333 342H308.667V528.667C371.663 518.703 429.003 486.49 470.283 437.87C511.563 389.25 534.05 327.447 533.667 263.667Z" fill="white"/>
</svg>
