<svg width="534" height="534" viewBox="0 0 534 534" fill="none" xmlns="http://www.w3.org/2000/svg">
<path d="M267 130.334C239.97 130.334 213.547 138.349 191.073 153.366C168.598 168.383 151.081 189.728 140.737 214.7C130.393 239.673 127.687 267.153 132.96 293.663C138.233 320.173 151.249 344.527 170.363 363.64C189.476 382.75 213.827 395.767 240.337 401.04C266.85 406.313 294.327 403.607 319.3 393.263C344.273 382.92 365.617 365.403 380.633 342.93C395.653 320.453 403.667 294.03 403.667 267C403.71 249.04 400.207 231.25 393.353 214.65C386.5 198.047 376.437 182.964 363.737 170.265C351.037 157.565 335.953 147.5 319.353 140.647C302.75 133.795 284.96 130.29 267 130.334ZM267 356C249.397 356 232.19 350.78 217.553 341C202.92 331.223 191.511 317.323 184.775 301.06C178.039 284.797 176.277 266.903 179.711 249.637C183.145 232.373 191.621 216.513 204.067 204.067C216.513 191.621 232.373 183.145 249.637 179.711C266.903 176.277 284.797 178.039 301.06 184.775C317.323 191.511 331.223 202.92 341 217.553C350.78 232.19 356 249.397 356 267C356 290.603 346.623 313.243 329.933 329.933C313.243 346.623 290.603 356 267 356ZM441.333 124.667C441.333 131.26 439.38 137.705 435.717 143.186C432.053 148.668 426.847 152.94 420.757 155.463C414.667 157.986 407.963 158.646 401.497 157.36C395.03 156.074 389.093 152.899 384.43 148.237C379.77 143.576 376.593 137.636 375.307 131.17C374.02 124.704 374.68 118.002 377.203 111.911C379.727 105.82 384 100.614 389.48 96.9517C394.963 93.2887 401.407 91.3337 408 91.3337C416.84 91.3337 425.32 94.8457 431.57 101.097C437.823 107.348 441.333 115.827 441.333 124.667ZM531.667 158C532.637 116.561 517.18 76.4204 488.667 46.3337C458.74 17.4567 418.58 1.63241 377 2.33374C333.667 0.33374 200.333 0.33374 157 2.33374C115.574 1.43674 75.4597 16.8841 45.3337 45.3337C16.8217 75.4204 1.36441 115.561 2.33374 157C0.33374 200.333 0.33374 333.667 2.33374 377C1.36441 418.44 16.8217 458.58 45.3337 488.667C75.4597 517.117 115.574 532.563 157 531.667C201 534.333 333 534.333 377 531.667C418.44 532.637 458.58 517.18 488.667 488.667C517.18 458.58 532.637 418.44 531.667 377C533.667 333.667 533.667 200.333 531.667 157V158ZM475 424.667C470.473 436.133 463.643 446.543 454.927 455.26C446.21 463.977 435.8 470.807 424.333 475.333C372.587 485.797 319.687 489.383 267 486C214.427 489.387 161.634 485.8 110 475.333C98.5361 470.807 88.1231 463.977 79.4077 455.26C70.6921 446.543 63.8597 436.133 59.3337 424.667C45.3337 389.333 48.3337 306 48.3337 267.333C48.3337 228.667 45.3337 145 59.3337 110C63.7321 98.4227 70.5157 87.8994 79.2444 79.1131C87.9731 70.3271 98.4517 63.4744 110 59.0004C161.634 48.5331 214.427 44.9464 267 48.3337C319.687 44.9521 372.587 48.5387 424.333 59.0004C435.8 63.5264 446.21 70.3587 454.927 79.0744C463.643 87.7897 470.473 98.2027 475 109.667C489 145 485.667 228.333 485.667 267C485.667 305.667 489 389.333 475 424.333V424.667Z" fill="white"/>
</svg>
