<svg width="1536" height="1600" viewBox="0 0 1536 1600" fill="none" xmlns="http://www.w3.org/2000/svg">
<path d="M985 878C993.667 878 1026.17 892.667 1082.5 922C1138.83 951.333 1168.67 969 1172 975C1173.33 978.333 1174 983.333 1174 990C1174 1012 1168.33 1037.33 1157 1066C1146.33 1092 1122.67 1113.83 1086 1131.5C1049.33 1149.17 1015.33 1158 984 1158C946 1158 882.667 1137.33 794 1096C728.667 1066 672 1026.67 624 978C576 929.333 526.667 867.667 476 793C428 721.667 404.333 657 405 599V591C407 530.333 431.667 477.667 479 433C495 418.333 512.333 411 531 411C535 411 541 411.5 549 412.5C557 413.5 563.333 414 568 414C580.667 414 589.5 416.167 594.5 420.5C599.5 424.833 604.667 434 610 448C615.333 461.333 626.333 490.667 643 536C659.667 581.333 668 606.333 668 611C668 625 656.5 644.167 633.5 668.5C610.5 692.833 599 708.333 599 715C599 719.667 600.667 724.667 604 730C626.667 778.667 660.667 824.333 706 867C743.333 902.333 793.667 936 857 968C865 972.667 872.333 975 879 975C889 975 907 958.833 933 926.5C959 894.167 976.333 878 985 878ZM782 1408C866.667 1408 947.833 1391.33 1025.5 1358C1103.17 1324.67 1170 1280 1226 1224C1282 1168 1326.67 1101.17 1360 1023.5C1393.33 945.833 1410 864.667 1410 780C1410 695.333 1393.33 614.167 1360 536.5C1326.67 458.833 1282 392 1226 336C1170 280 1103.17 235.333 1025.5 202C947.833 168.667 866.667 152 782 152C697.333 152 616.167 168.667 538.5 202C460.833 235.333 394 280 338 336C282 392 237.333 458.833 204 536.5C170.667 614.167 154 695.333 154 780C154 915.333 194 1038 274 1148L195 1381L437 1304C542.333 1373.33 657.333 1408 782 1408ZM782 26C884 26 981.5 46 1074.5 86C1167.5 126 1247.67 179.667 1315 247C1382.33 314.333 1436 394.5 1476 487.5C1516 580.5 1536 678 1536 780C1536 882 1516 979.5 1476 1072.5C1436 1165.5 1382.33 1245.67 1315 1313C1247.67 1380.33 1167.5 1434 1074.5 1474C981.5 1514 884 1534 782 1534C652 1534 530.333 1502.67 417 1440L0 1574L136 1169C64 1050.33 28 920.667 28 780C28 678 48 580.5 88 487.5C128 394.5 181.667 314.333 249 247C316.333 179.667 396.5 126 489.5 86C582.5 46 680 26 782 26Z" fill="white"/>
</svg>
