<svg width="67" height="67" viewBox="0 0 67 67" fill="none" xmlns="http://www.w3.org/2000/svg">
<path d="M33.8662 66.3721C15.7553 66.4506 0.863458 51.3756 1.29529 32.9637C1.70096 15.4416 16.2133 0.9424 34.2849 1.13869C52.1734 1.33498 66.9736 16.2268 66.4894 34.6518C66.0314 52.1215 51.6369 66.4637 33.8662 66.3721ZM5.26033 33.7881C5.40428 50.1586 18.6342 62.7473 34.2588 62.551C49.4777 62.3547 62.4851 49.9885 62.4982 33.775C62.5113 17.3914 49.1637 4.76349 33.4867 4.97287C18.2678 5.18224 5.37811 17.5746 5.26033 33.7881Z" fill="white"/>
<path d="M33.7225 47.1489C29.2994 47.0049 24.8764 46.8741 20.4533 46.6909C19.5112 46.6516 18.5428 46.4684 17.6399 46.1936C15.4938 45.5393 14.5516 43.825 14.2637 41.7836C13.9365 39.4805 13.7141 37.1512 13.6879 34.8219C13.6617 31.6944 13.858 28.5538 14.0281 25.4131C14.1067 24.0653 14.46 22.7305 15.2059 21.5789C16.2658 19.917 17.9278 19.3543 19.786 19.2497C28.4096 18.7524 37.0463 18.7262 45.6699 19.145C46.6252 19.1973 47.5805 19.2627 48.5358 19.3674C50.6819 19.6291 52.2391 20.7545 52.8279 22.8483C53.2598 24.4055 53.5608 26.0413 53.6131 27.6639C53.7309 31.184 53.7047 34.7172 53.6262 38.2504C53.5869 39.7161 53.3383 41.1948 52.985 42.6342C52.3961 45.0682 50.7211 46.403 48.2348 46.6124C46.1018 46.7825 43.9688 46.9002 41.8358 46.9395C39.1401 46.9918 36.4313 46.9526 33.7225 46.9526C33.7225 47.0049 33.7225 47.0834 33.7225 47.1489ZM40.4094 32.545C36.7453 30.6344 33.199 28.7893 29.6135 26.918C29.6135 30.7129 29.6135 34.377 29.6135 38.1457C33.2252 36.2745 36.7715 34.4424 40.4094 32.545Z" fill="white"/>
</svg>
